<?xml version="1.0" encoding="UTF-8" standalone="no"?>
<!-- Created with Inkscape (http://www.inkscape.org/) -->

<svg
   width="94.466125mm"
   height="29.09506mm"
   viewBox="0 0 94.466125 29.09506"
   version="1.1"
   id="svg1"
   xmlns:xlink="http://www.w3.org/1999/xlink"
   xmlns="http://www.w3.org/2000/svg"
   xmlns:svg="http://www.w3.org/2000/svg">
  <defs
     id="defs1">
    <linearGradient
       id="linearGradient32">
      <stop
         style="stop-color:#00d4aa;stop-opacity:1;"
         offset="0"
         id="stop33" />
      <stop
         style="stop-color:#487873;stop-opacity:1;"
         offset="1"
         id="stop34" />
    </linearGradient>
    <linearGradient
       xlink:href="#linearGradient32"
       id="linearGradient35"
       gradientUnits="userSpaceOnUse"
       gradientTransform="matrix(2.4006865,0,0,2.4006865,9.2061421,37.941118)"
       x1="18.933559"
       y1="95.329773"
       x2="58.283176"
       y2="95.329773" />
  </defs>
  <g
     id="layer1"
     transform="translate(-54.659683,-252.25037)">
    <path
       id="path32-1"
       style="font-size:15.5222px;font-family:'Titan One';-inkscape-font-specification:'Titan One, Normal';fill:url(#linearGradient35);stroke-width:0.25888"
       d="m 116.29712,252.25107 c -3.03385,0.0216 -4.55173,0.95077 -4.55173,3.04688 0,2.23584 2.05258,2.27523 5.53055,2.27523 3.47797,0 4.90281,-0.0394 4.90281,-2.27523 -0.23493,-2.95505 -2.29015,-2.94972 -5.2539,-3.03943 -0.21572,-0.007 -0.42548,-0.01 -0.62773,-0.007 z m -12.36124,0.0286 c -1.44087,0 -2.91846,0.23647 -4.433862,0.70837 -1.490557,0.472 -2.236782,1.09325 -2.236782,1.86337 v 4.5083 c -1.30878,-0.35207 -2.493607,-0.3173 -3.185831,-0.29774 -1.316133,0.0372 -2.633378,0.33535 -3.950037,1.00611 -1.316658,0.6459 -2.148268,1.44038 -2.496065,2.38441 h -0.261764 l -0.372176,-1.71325 c -0.198753,-0.89433 -1.118218,-1.34232 -2.757832,-1.34232 -1.614771,0 -3.117114,0.27348 -4.508299,0.82002 -1.366344,0.54654 -2.049454,1.0564 -2.049454,1.52842 v 18.37066 c 0,0.32294 0.222759,0.55931 0.669918,0.70837 0.447169,0.12411 1.416144,0.18605 2.906701,0.18605 1.5154,0 2.969484,-0.0742 4.360669,-0.22326 1.416029,-0.17381 2.12389,-0.39789 2.12389,-0.67116 v -10.88121 c 0,-0.44718 0.099,-0.79492 0.297741,-1.04334 0.223576,-0.24842 0.758192,-0.37218 1.602842,-0.37218 0.869493,0 1.94404,0.25716 3.278877,0.55826 1.629257,0.36752 3.102246,0.54094 4.34082,0.49127 v 3.27269 c 0,3.85061 0.9071,6.38504 2.720612,7.60233 0.944022,0.62106 1.937742,1.04307 2.981132,1.26665 1.04339,0.19878 2.36011,0.29773 3.95004,0.29773 1.58993,0 2.6084,-0.2103 3.05557,-0.6327 0.44718,-0.42233 0.67116,-1.46679 0.67116,-3.13126 0,-0.84464 -0.0495,-1.47825 -0.14887,-1.90058 -0.0994,-0.42233 -0.37286,-0.6327 -0.82002,-0.6327 -0.42233,0 -0.91981,-0.13732 -1.49119,-0.41064 -0.57138,-0.29809 -0.85725,-0.78197 -0.85725,-1.45272 v -4.2788 h 2.19956 c 0.44717,0 0.80729,-0.38485 1.08056,-1.15499 0.29811,-0.79496 0.44661,-4.34179 0.44661,-5.55908 0,-1.86319 -0.32299,-2.43528 -0.9689,-2.43528 h -2.75783 v -5.76258 c 0,-1.11791 -1.12985,-1.67727 -3.39053,-1.67727 z m 24.38378,3.4538 c -0.41218,-8.4e-4 -0.8195,0.0624 -1.22198,0.18845 -0.53664,0.16829 -1.13015,0.44699 -1.78148,0.83739 -1.25926,0.7548 -2.06419,1.68612 -2.41543,2.79382 -0.34605,1.11637 -0.12378,2.33471 0.66744,3.65476 0.39041,0.65135 0.79945,1.16656 1.22818,1.54702 0.0538,0.0483 0.10806,0.0948 0.16128,0.139 -0.5699,1.41674 -0.85477,3.11204 -0.85477,5.08641 0,4.47168 1.12985,7.52711 3.39053,9.16673 1.09308,0.81979 2.3108,1.39154 3.6523,1.71448 1.3415,0.32296 2.94408,0.48383 4.80728,0.48383 3.60218,0 6.47074,-0.94421 8.60721,-2.83226 2.13646,-1.91289 3.20568,-4.75669 3.20568,-8.53278 0,-1.8632 -0.21162,-3.46578 -0.63394,-4.80728 -0.0387,-0.12532 -0.0795,-0.24564 -0.12035,-0.36596 0.0199,-0.0168 0.0395,-0.0341 0.0596,-0.0521 0.42874,-0.38048 0.83778,-0.89569 1.22818,-1.54702 0.79123,-1.32004 1.01474,-2.53839 0.66868,-3.65478 -0.35124,-1.10768 -1.15741,-2.039 -2.41667,-2.7938 -0.65133,-0.3904 -1.24484,-0.66922 -1.78148,-0.83741 -0.53664,-0.16829 -1.0812,-0.22374 -1.6351,-0.16613 -1.13385,0.0994 -2.16945,0.93036 -3.10643,2.4936 -0.208,0.34701 -0.37684,0.68441 -0.50492,1.01232 -1.00542,-0.13204 -2.19095,-0.19974 -3.57042,-0.19974 -1.27474,0 -2.46203,0.11019 -3.56173,0.33 -0.13307,-0.3687 -0.31512,-0.74935 -0.55082,-1.14258 -0.93698,-1.56324 -1.97258,-2.39414 -3.10644,-2.4936 -0.13847,-0.0144 -0.27696,-0.0216 -0.41435,-0.0216 z m -9.71877,2.32734 c -1.66446,0 -3.20393,0.27349 -4.61995,0.82003 -1.39119,0.52169 -2.08668,0.69529 -2.08668,1.24183 v 19.99335 c 0,0.32294 0.21038,0.55931 0.6327,0.70837 0.44717,0.12411 1.41615,0.18605 2.90671,0.18605 1.5154,0 2.98185,-0.0742 4.39788,-0.22326 1.44088,-0.17381 2.16111,-0.39789 2.16111,-0.67116 v -20.30475 c 0,-1.16759 -1.13109,-1.75046 -3.39177,-1.75046 z m -52.427298,1.00116 c -1.589929,0 -3.229638,0.22399 -4.918937,0.67116 -1.664455,0.42233 -2.955182,0.89383 -3.874359,1.41552 -0.919178,0.52169 -1.379536,0.94368 -1.379536,1.26665 0,0.96884 0.384869,2.05045 1.15499,3.24289 0.770121,1.1676 1.378978,1.75046 1.826147,1.75046 0.198753,0 0.583609,-0.16084 1.154989,-0.48383 0.57138,-0.34779 1.279237,-0.68316 2.123888,-1.0061 0.869492,-0.32297 1.603341,-0.48509 2.199564,-0.48509 0.621065,0 1.080186,0.0879 1.378296,0.26177 0.695594,0.42233 1.043334,1.14256 1.043334,2.1611 h -1.229423 c -1.937724,0 -3.714801,0.2103 -5.329572,0.6327 -1.068233,0.29812 -1.998843,0.683 -2.793806,1.155 -0.794966,0.47202 -1.478074,1.14397 -2.049454,2.01348 -0.546538,0.86948 -0.820029,1.88797 -0.820029,3.05557 0,1.1676 0.185621,2.18609 0.558265,3.05557 0.397484,0.8695 0.85784,1.52784 1.379536,1.97502 1.291816,1.06823 3.067652,1.60159 5.32833,1.60159 5.199179,0 12.717114,-0.52143 13.042313,-0.55825 1.341501,-0.17381 2.012236,-0.39789 2.012236,-0.67116 v -11.21618 c 0,-1.3415 -0.08662,-2.47259 -0.260525,-3.39176 -0.124211,-0.79496 -0.323451,-1.44094 -0.596721,-1.93781 -0.248426,-0.49685 -0.633294,-1.05496 -1.15499,-1.67604 -0.496853,-0.62106 -1.118086,-1.11853 -1.863365,-1.49119 -0.720434,-0.37263 -1.66466,-0.68326 -2.832265,-0.93168 -1.14276,-0.27325 -2.508976,-0.40939 -4.098906,-0.40939 z m 69.930768,11.41095 c 2.03366,0 3.582,0.2355 2.867,1.3299 -0.90116,1.37951 -1.36401,1.77368 -3.07294,1.77776 -1.70892,0.005 -2.21088,-0.5106 -3.02828,-1.77776 -0.70863,-1.0985 1.20057,-1.3299 3.23422,-1.3299 z" />
  </g>
</svg>
