<?xml version="1.0" encoding="UTF-8" standalone="no"?>
<!-- Created with Inkscape (http://www.inkscape.org/) -->

<svg
   width="156.06424mm"
   height="41.388565mm"
   viewBox="0 0 156.06424 41.388565"
   version="1.1"
   id="svg1"
   xmlns:xlink="http://www.w3.org/1999/xlink"
   xmlns="http://www.w3.org/2000/svg"
   xmlns:svg="http://www.w3.org/2000/svg">
  <defs
     id="defs1">
    <linearGradient
       id="linearGradient32">
      <stop
         style="stop-color:#00d4aa;stop-opacity:1;"
         offset="0"
         id="stop33" />
      <stop
         style="stop-color:#487873;stop-opacity:1;"
         offset="1"
         id="stop34" />
    </linearGradient>
    <linearGradient
       xlink:href="#linearGradient32"
       id="linearGradient37"
       x1="24.438114"
       y1="61.030117"
       x2="68.622231"
       y2="61.030117"
       gradientUnits="userSpaceOnUse"
       gradientTransform="matrix(0.99919767,0,0,1.0624517,-0.01838996,-2.6384083)" />
  </defs>
  <g
     id="layer1"
     transform="translate(-23.860608,-52.37454)">
    <g
       id="g50"
       transform="matrix(2.4006865,0,0,2.4006865,-34.716422,-76.261435)">
      <g
         id="g47">
        <g
           id="g46">
          <rect
             style="fill:url(#linearGradient37);stroke:none;stroke-width:0.309102;stroke-linecap:round;stroke-linejoin:round;stroke-dasharray:none;stroke-dashoffset:0.907087;stroke-opacity:1;paint-order:stroke fill markers"
             id="rect35"
             width="44.148666"
             height="17.240305"
             x="24.400116"
             y="53.582996"
             ry="2.4233363" />
          <path
             id="path32"
             style="font-size:15.5222px;font-family:'Titan One';-inkscape-font-specification:'Titan One, Normal';fill:#ffffff;stroke-width:0.107836"
             d="m 52.47456,56.143657 c -1.26374,0.0091 -1.896008,0.396049 -1.896008,1.269173 0,0.93133 0.854996,0.947746 2.303735,0.947746 1.448739,0 2.042252,-0.01641 2.042252,-0.947746 -0.09786,-1.230923 -0.953954,-1.228703 -2.188496,-1.266073 -0.08986,-0.0027 -0.177234,-0.0037 -0.261483,-0.0031 z m -5.14904,0.01188 c -0.600192,0 -1.21568,0.09846 -1.846916,0.295073 -0.620888,0.196614 -0.931726,0.455387 -0.931726,0.77618 v 1.877921 c -0.545169,-0.146651 -1.038706,-0.13217 -1.32705,-0.124023 -0.548232,0.01549 -1.096927,0.139696 -1.645378,0.419096 -0.548451,0.269051 -0.894856,0.599992 -1.03973,0.993221 h -0.109037 l -0.155029,-0.713652 c -0.08279,-0.372533 -0.465791,-0.559139 -1.148768,-0.559139 -0.672629,0 -1.298426,0.113922 -1.877921,0.341581 -0.569147,0.227659 -0.853695,0.440039 -0.853695,0.636654 v 7.65225 c 0,0.13452 0.09279,0.23298 0.279053,0.29507 0.186267,0.0517 0.589891,0.0775 1.210779,0.0775 0.631236,0 1.236931,-0.0309 1.816426,-0.093 0.589843,-0.0724 0.884701,-0.16574 0.884701,-0.27957 v -4.532541 c 0,-0.186267 0.04124,-0.331118 0.124023,-0.434599 0.09313,-0.103482 0.315823,-0.155029 0.66766,-0.155029 0.362185,0 0.809785,0.10712 1.365808,0.232544 0.678663,0.153089 1.292233,0.22533 1.808158,0.204639 v 1.363224 c 0,1.603961 0.37785,2.659672 1.133264,3.166732 0.393229,0.2587 0.807163,0.43449 1.241785,0.52762 0.434621,0.0828 0.983097,0.12402 1.645378,0.12402 0.662281,0 1.086524,-0.0876 1.27279,-0.26355 0.186271,-0.17592 0.27957,-0.61099 0.27957,-1.304313 0,-0.351837 -0.02062,-0.615765 -0.06201,-0.791683 -0.04139,-0.175917 -0.155315,-0.26355 -0.341581,-0.26355 -0.175919,0 -0.383144,-0.05722 -0.621151,-0.171049 -0.238007,-0.124177 -0.357084,-0.325732 -0.357084,-0.605131 v -1.78232 h 0.916223 c 0.186267,0 0.336273,-0.160316 0.450102,-0.481108 0.124176,-0.33114 0.186035,-1.808562 0.186035,-2.315621 0,-0.77611 -0.134542,-1.014408 -0.403593,-1.014408 h -1.148767 v -2.40037 c 0,-0.465666 -0.470637,-0.698666 -1.412317,-0.698666 z m 10.157003,1.438672 c -0.171695,-3.44e-4 -0.341362,0.026 -0.509013,0.07855 -0.223536,0.07006 -0.470761,0.186192 -0.742074,0.348816 -0.524541,0.314406 -0.85983,0.702346 -1.00614,1.163753 -0.144148,0.465023 -0.05156,0.972524 0.27802,1.522388 0.162623,0.271313 0.333008,0.485923 0.511596,0.644405 0.02241,0.0201 0.04501,0.03945 0.06718,0.05788 -0.237388,0.590137 -0.356051,1.296314 -0.356051,2.118734 0,1.862664 0.470637,3.135394 1.412317,3.818374 0.455318,0.34148 0.962555,0.57964 1.521354,0.71416 0.558799,0.13453 1.226352,0.20154 2.002462,0.20154 1.500479,0 2.695371,-0.39331 3.585311,-1.17977 0.889939,-0.796805 1.335319,-1.981388 1.335319,-3.554304 0,-0.77611 -0.08815,-1.443663 -0.264067,-2.002462 -0.01614,-0.05221 -0.03311,-0.102323 -0.05013,-0.152446 0.0083,-0.0073 0.01644,-0.0142 0.02481,-0.0217 0.178588,-0.158482 0.348973,-0.373092 0.511596,-0.644405 0.329584,-0.549864 0.422684,-1.057365 0.278536,-1.522388 -0.14631,-0.461407 -0.482116,-0.849347 -1.006657,-1.163753 -0.271313,-0.162624 -0.518537,-0.278757 -0.742073,-0.348816 -0.223534,-0.07006 -0.450371,-0.09321 -0.681096,-0.06925 -0.472304,0.04143 -0.903681,0.387541 -1.293977,1.038696 -0.08664,0.144546 -0.156972,0.285088 -0.210324,0.42168 -0.418802,-0.05499 -0.912633,-0.0832 -1.487247,-0.0832 -0.53099,0 -1.025552,0.04593 -1.483631,0.137459 -0.05543,-0.153583 -0.131264,-0.312142 -0.229443,-0.47594 -0.390296,-0.651155 -0.821674,-0.997266 -1.293978,-1.038696 -0.05768,-0.006 -0.115367,-0.0092 -0.172599,-0.0093 z m -4.048332,0.96945 c -0.693325,0 -1.334587,0.113922 -1.92443,0.341581 -0.579495,0.217311 -0.869198,0.289622 -0.869198,0.517281 v 8.328178 c 0,0.13452 0.08763,0.23298 0.26355,0.29507 0.186267,0.0517 0.589891,0.0775 1.210779,0.0775 0.631236,0 1.242086,-0.0309 1.831929,-0.093 0.600192,-0.0724 0.900204,-0.16574 0.900204,-0.27957 v -8.457883 c 0,-0.486363 -0.471154,-0.729154 -1.412834,-0.729154 z m -21.83846,0.417034 c -0.662281,0 -1.345298,0.0933 -2.048971,0.279569 -0.693325,0.175918 -1.230974,0.372317 -1.613855,0.589628 -0.382881,0.217311 -0.574642,0.393092 -0.574642,0.527617 0,0.403577 0.160316,0.854111 0.481108,1.350822 0.320792,0.486362 0.57441,0.729154 0.760677,0.729154 0.08279,0 0.243101,-0.06701 0.481108,-0.201538 0.238007,-0.144873 0.532863,-0.28457 0.8847,-0.419096 0.362185,-0.134529 0.667868,-0.202055 0.916223,-0.202055 0.258703,0 0.449949,0.0366 0.574126,0.109038 0.289748,0.175918 0.434598,0.47593 0.434598,0.900203 H 31.37869 c -0.807154,0 -1.547391,0.08763 -2.22002,0.26355 -0.44497,0.124177 -0.832613,0.284492 -1.163753,0.481107 -0.331141,0.196615 -0.615688,0.476524 -0.853695,0.838709 -0.227659,0.362185 -0.341581,0.786428 -0.341581,1.27279 0,0.486362 0.07732,0.910606 0.232544,1.272791 0.165571,0.362187 0.357331,0.636417 0.574642,0.822687 0.538103,0.44497 1.277823,0.66714 2.219503,0.66714 2.165705,0 5.297282,-0.2172 5.432743,-0.23254 0.558799,-0.0724 0.838192,-0.16574 0.838192,-0.27957 v -4.672065 c 0,-0.558799 -0.03608,-1.029953 -0.108521,-1.412834 -0.05174,-0.331141 -0.134733,-0.600223 -0.248563,-0.807186 -0.103481,-0.206963 -0.263797,-0.439445 -0.481108,-0.698148 -0.206963,-0.258703 -0.465736,-0.465929 -0.77618,-0.621151 -0.300095,-0.155222 -0.69341,-0.284609 -1.179773,-0.38809 -0.476014,-0.113824 -1.045108,-0.170532 -1.707389,-0.170532 z m 29.129488,4.753198 c 0.847114,0 1.492071,0.09805 1.194242,0.553971 -0.375376,0.574626 -0.568176,0.738824 -1.280025,0.740524 -0.711847,0.0017 -0.920937,-0.212696 -1.261422,-0.740524 -0.295178,-0.457585 0.500091,-0.553971 1.347205,-0.553971 z" />
        </g>
        <path
           style="fill:#000000;fill-opacity:0;stroke:none;stroke-width:0.369335;stroke-linecap:round;stroke-linejoin:round;stroke-dasharray:none;stroke-dashoffset:0.907087;stroke-opacity:1;paint-order:stroke fill markers"
           d="m 268.24104,254.32749 -0.81433,-0.43781 -0.0847,-14.86821 -0.0847,-14.86822 0.89904,-0.62988 c 1.92337,-1.34756 4.68296,-2.10795 8.22802,-2.2672 3.15015,-0.1415 3.49092,-0.0976 4.31589,0.55646 0.58231,0.46166 0.96475,1.14199 1.09308,1.94453 0.34927,2.18423 0.64886,2.2971 1.96102,0.73883 2.1208,-2.51857 6.62506,-4.21402 10.30804,-3.88006 2.14493,0.1945 3.39547,0.89552 4.07745,2.28574 0.94301,1.92231 -0.73375,10.7362 -2.32725,12.23322 l -0.77588,0.7289 -3.38155,-0.88449 c -3.76186,-0.98396 -7.36279,-1.202 -8.21231,-0.49726 -0.46816,0.38837 -0.5446,1.59238 -0.62032,9.7707 l -0.0864,9.32774 -1.30294,0.4332 c -1.93271,0.64259 -12.12949,0.88515 -13.19218,0.31381 z"
           id="path45"
           transform="scale(0.26458333)" />
        <path
           d="m 74.258631,67.340995 c 0,0.134526 -0.315618,0.243182 -0.946855,0.325967 -0.631236,0.08279 -1.267646,0.124177 -1.90923,0.124177 -0.631236,0 -1.039987,-0.03622 -1.226254,-0.108655 -0.175918,-0.07244 -0.263877,-0.186267 -0.263877,-0.341489 v -9.980774 c 0,-0.269051 0.336314,-0.460492 1.008943,-0.574321 0.682977,-0.11383 1.541872,-0.170745 2.576685,-0.170745 1.034813,0 1.702268,0.0052 2.002364,0.01552 0.310443,0 0.672623,0.01552 1.086553,0.04657 0.41393,0.03105 0.73989,0.08279 0.9779,0.155222 0.24835,0.07244 0.5174,0.165571 0.80715,0.2794 0.3001,0.113829 0.53293,0.263877 0.6985,0.450144 0.16557,0.175918 0.32597,0.388055 0.48119,0.63641 0.2794,0.444969 0.4191,1.081379 0.4191,1.90923 0,0.817503 -0.1397,1.510828 -0.4191,2.079975 -0.26905,0.558799 -0.63124,0.983073 -1.08655,1.272821 1.19003,1.873012 1.78505,3.063047 1.78505,3.570105 0,0.507059 -1.01929,0.760588 -3.05787,0.760588 -0.58985,0 -0.9986,-0.02587 -1.22626,-0.07761 -0.22766,-0.05174 -0.37253,-0.165569 -0.43462,-0.341488 l -1.008942,-3.197573 -0.263877,-0.01552 z m 14.637429,0.450144 h -6.58141 c -0.50706,0 -0.84855,-0.03622 -1.02447,-0.108655 -0.17592,-0.07244 -0.26388,-0.186267 -0.26388,-0.341489 v -9.825552 c 0,-0.269051 0.119,-0.460492 0.35701,-0.574321 0.24836,-0.11383 0.68816,-0.170745 1.31939,-0.170745 h 6.23993 c 0.21731,0 0.32596,0.362185 0.32596,1.086554 0,0.714021 -0.0466,1.262473 -0.1397,1.645354 -0.0931,0.372533 -0.21731,0.558799 -0.37253,0.558799 -0.67263,0 -1.80575,-0.06726 -3.39936,-0.201789 v 1.039988 c 1.53152,-0.06209 2.53011,-0.09313 2.99578,-0.09313 0.2794,0 0.4191,0.325966 0.4191,0.977899 0,0.651933 -0.0569,1.148643 -0.17074,1.490131 -0.10349,0.331141 -0.24836,0.496711 -0.43462,0.496711 L 85.357,63.708804 v 0.99342 c 1.80057,-0.134525 3.04235,-0.201788 3.72533,-0.201788 0.21731,0 0.32596,0.362185 0.32596,1.086554 0,0.724369 -0.0466,1.27282 -0.1397,1.645353 -0.0931,0.372533 -0.21731,0.558799 -0.37253,0.558799 z"
           id="text46"
           style="font-size:15.5222px;font-family:'Titan One';-inkscape-font-specification:'Titan One, Normal';fill:#467a74;stroke-width:0.3;stroke-linecap:round;stroke-linejoin:round;stroke-dashoffset:0.907087;paint-order:stroke fill markers"
           aria-label="RE" />
      </g>
    </g>
  </g>
</svg>
