<?xml version="1.0" encoding="UTF-8" standalone="no"?>
<!-- Created with Inkscape (http://www.inkscape.org/) -->

<svg
   width="41.38784mm"
   height="41.387833mm"
   viewBox="0 0 41.38784 41.387833"
   version="1.1"
   id="svg1"
   xmlns:xlink="http://www.w3.org/1999/xlink"
   xmlns="http://www.w3.org/2000/svg"
   xmlns:svg="http://www.w3.org/2000/svg">
  <defs
     id="defs1">
    <linearGradient
       id="linearGradient32">
      <stop
         style="stop-color:#00d4aa;stop-opacity:1;"
         offset="0"
         id="stop33" />
      <stop
         style="stop-color:#487873;stop-opacity:1;"
         offset="1"
         id="stop34" />
    </linearGradient>
    <linearGradient
       xlink:href="#linearGradient32"
       id="linearGradient49"
       gradientUnits="userSpaceOnUse"
       gradientTransform="matrix(0.33948852,0,0,0.92439059,44.149727,84.261102)"
       x1="24.438114"
       y1="61.030117"
       x2="68.622231"
       y2="61.030117" />
  </defs>
  <g
     id="layer1"
     transform="translate(-81.198808,-202.28201)">
    <g
       id="g49"
       transform="matrix(2.7591889,0,0,2.7591889,-63.510124,-165.17788)">
      <rect
         style="fill:url(#linearGradient49);stroke:none;stroke-width:0.168058;stroke-linecap:round;stroke-linejoin:round;stroke-dasharray:none;stroke-dashoffset:0.907087;stroke-opacity:1;paint-order:stroke fill markers"
         id="rect49"
         width="15"
         height="15"
         x="52.446186"
         y="133.17677"
         ry="2.108434" />
      <path
         id="path49"
         style="font-size:15.5222px;font-family:'Titan One';-inkscape-font-specification:'Titan One, Normal';fill:#ffffff;stroke-width:0.107836"
         d="m 56.774343,135.34249 c -0.171695,-3.4e-4 -0.341362,0.026 -0.509013,0.0785 -0.223536,0.0701 -0.470761,0.1862 -0.742074,0.34882 -0.524541,0.31441 -0.85983,0.70235 -1.00614,1.16375 -0.144148,0.46503 -0.05156,0.97253 0.27802,1.52239 0.162623,0.27131 0.333008,0.48592 0.511596,0.64441 0.02241,0.0201 0.04501,0.0395 0.06718,0.0579 -0.237388,0.59013 -0.356051,1.29631 -0.356051,2.11873 0,1.86266 0.470637,3.13539 1.412317,3.81837 0.455318,0.34148 0.962555,0.57964 1.521354,0.71416 0.558799,0.13453 1.226352,0.20154 2.002462,0.20154 1.500479,0 2.695371,-0.39331 3.585311,-1.17977 0.889939,-0.7968 1.335319,-1.98138 1.335319,-3.5543 0,-0.77611 -0.08815,-1.44366 -0.264067,-2.00246 -0.01614,-0.0522 -0.03311,-0.10233 -0.05013,-0.15245 0.0083,-0.007 0.01644,-0.0142 0.02481,-0.0217 0.178588,-0.15848 0.348973,-0.37309 0.511596,-0.6444 0.329584,-0.54987 0.422684,-1.05737 0.278536,-1.52239 -0.14631,-0.46141 -0.482116,-0.84935 -1.006657,-1.16375 -0.271313,-0.16263 -0.518537,-0.27876 -0.742073,-0.34882 -0.223534,-0.0701 -0.450371,-0.0932 -0.681096,-0.0692 -0.472304,0.0414 -0.903681,0.38754 -1.293977,1.0387 -0.08664,0.14454 -0.156972,0.28508 -0.210324,0.42168 -0.418802,-0.055 -0.912633,-0.0832 -1.487247,-0.0832 -0.53099,0 -1.025552,0.0459 -1.483631,0.13745 -0.05543,-0.15358 -0.131264,-0.31214 -0.229443,-0.47594 -0.390296,-0.65115 -0.821674,-0.99726 -1.293978,-1.03869 -0.05768,-0.006 -0.115367,-0.009 -0.172599,-0.009 z m 3.242696,6.13969 c 0.847114,0 1.492071,0.0981 1.194242,0.55397 -0.375376,0.57462 -0.568176,0.73882 -1.280025,0.74052 -0.711847,0.002 -0.920937,-0.2127 -1.261422,-0.74052 -0.295178,-0.45759 0.500091,-0.55397 1.347205,-0.55397 z" />
    </g>
  </g>
</svg>
